<svg id="Layer_4" data-name="Layer 4" xmlns="http://www.w3.org/2000/svg" viewBox="0 0 1104.06 535.35">
  <defs>
    <style>
      .cls-1 {
        fill: #fff;
      }
    </style>
  </defs>
  <g id="fang-top">
    <path class="cls-1" d="M537.16,857.64q-.76-3.07-1.6-6.13c-.53-1.92-1-3.88-1.6-5.77-1.24-3.88-2.7-7.68-4.1-11.5-1.33-3.61-2.58-7.24-3.86-10.87-.83-2.43-1.62-4.88-2.49-7.3s-1.88-5-2.84-7.47-1.86-4.8-2.79-7.2-1.76-4.78-2.62-7.18c-1.3-3.6-2.84-7.09-4.28-10.63-.65-1.6-1.32-3.21-2.09-4.77s-1.75-3.2-2.7-4.78q-2.74-4.57-5.57-9.11a46,46,0,0,0-3.2-4.42,5.07,5.07,0,0,0-7-.9c-1,.78-2.06,1.55-3.08,2.34-.43.09-.87.18-1.29.3-4.54,1.34-8,4.93-11.15,8.34a35.84,35.84,0,0,0-5.4,7.76,72.35,72.35,0,0,0-3.49,8.9,70.47,70.47,0,0,0-2.45,8.92c-.66,3.15-1.31,6.32-1.71,9.51a50.91,50.91,0,0,0-.32,10.1,52.12,52.12,0,0,0,1.68,9.53,45.36,45.36,0,0,0,3.24,8.83c.81,1.62,1.64,3.23,2.56,4.8q1.25,2.1,2.59,4.14a91.42,91.42,0,0,0,5.73,7.84c2.09,2.57,4.2,5.12,6.26,7.72s4.05,5,6.08,7.56c2.19,2.73,4.49,5.35,6.8,8l-.42-.48c2.59,2.95,5.24,5.81,7.92,8.67s5,5.59,7.6,8.33a92.18,92.18,0,0,0,6.68,6.43c1.1,1,2.21,1.89,3.32,2.83s2.12,1.84,3.22,2.71a8.14,8.14,0,0,0,3,1.8,6.88,6.88,0,0,0,1.64.2,4.53,4.53,0,0,0,3-1,4.6,4.6,0,0,0,1.66-2.9c0-.09,0-.17,0-.26a12.59,12.59,0,0,0,1.17-2.84c0,.11-.07.21-.11.31.79-2.26,1.46-4.56,2.19-6.84a59,59,0,0,0,1.94-7.15,46.5,46.5,0,0,0,.35-14.75A107.09,107.09,0,0,0,537.16,857.64Z" transform="translate(-461.39 -449.08)"/>
    <path class="cls-1" d="M538.25,727.5c.19,1.83.58,3.64,1,5.44.72,3.55,1.72,7,2.48,10.57.67,3.08,1.38,6.15,2,9.23.84,4.23,1.51,8.49,2.19,12.75s1.23,8.37,1.57,12.58a81.85,81.85,0,0,1-.17,8.58c-.44,5-1.33,10-1.84,15.08-.29,2.87-.51,5.75-.57,8.63,0,2.37,0,4.74.06,7.1.09,4.31.27,8.61.71,12.89.42,4,.76,7.93,1.19,11.88.23,2,.49,4.08.86,6.09.34,1.85.68,3.71.94,5.57.33,2.45.48,5,1.58,7.25.63,1.29,1.32,2.52,2.06,3.75.24.4.5.79.75,1.18a15,15,0,0,0,1.3,1.95,7.34,7.34,0,0,0,3.67,2.47,7.16,7.16,0,0,0,1.91.26,6.32,6.32,0,0,0,2.66-.56l.25-.1.59-.17c1.37-.23,2.77-.33,4.15-.53a33.6,33.6,0,0,0,5.94-1.43,26.54,26.54,0,0,0,5.44-2.89c1.76-1.14,3.5-2.33,5.16-3.61a34.65,34.65,0,0,0,4.93-4.44,36.67,36.67,0,0,0,4-5.58c1.08-1.81,2.11-3.65,3.17-5.46.92-1.56,1.9-3.07,2.9-4.56a103.2,103.2,0,0,0,5.86-9.31,75.12,75.12,0,0,0,4.61-9.67c.3-.79.57-1.58.84-2.38l1.11,2.63c1.38,3.27,2.86,6.47,4.44,9.64s3.42,6.19,5.06,9.33a101.79,101.79,0,0,0,6.32,11.55c2.59,3.88,5.43,7.56,8.13,11.37a97,97,0,0,1,5.43,9.23l-.69-1.38a122.7,122.7,0,0,0,7.17,12.82,59.11,59.11,0,0,0,8.81,10.38c.76.88,1.52,1.76,2.26,2.66,1.53,1.85,3,3.71,4.57,5.56s2.93,3.54,4.35,5.34,2.65,3.6,3.92,5.44,2.26,3.44,3.38,5.17c1.26,1.93,2.58,3.82,3.91,5.69,2.42,3.42,4.72,6.92,7.2,10.3.69.94,1.36,1.9,2.12,2.79s1.79,2.06,2.71,3.06c1.53,1.67,3.16,3.27,4.81,4.82,1.81,1.71,3.68,3.38,5.49,5.09,1.61,1.51,3.18,3.06,4.69,4.66s3.14,3.41,4.8,5,3.43,3.34,5.25,4.89c1.63,1.38,3.31,2.68,5,4s3.54,3,5.27,4.49c.83.75,1.66,1.49,2.47,2.28a20.22,20.22,0,0,0,2.7,2.35,13.56,13.56,0,0,0,3.34,1.72,3.93,3.93,0,0,0,.48,1.3,4.54,4.54,0,0,0,2,1.86,3.25,3.25,0,0,0,1.35.29,3.94,3.94,0,0,0,3.4-2.15,5,5,0,0,0,.58-2.67c0-.6-.07-1.19-.12-1.78-.1-1.15-.24-2.28-.43-3.41a77.68,77.68,0,0,0-1.92-8c-.76-2.7-1.5-5.4-2.11-8.14q-.67-3.62-1-7.27c-.21-2.19-.42-4.37-.84-6.52a70.94,70.94,0,0,0-1.63-6.92c-.68-2.24-1.44-4.45-2.09-6.7s-1.23-4.61-1.8-6.93-1.13-4.69-1.65-7-.92-4.52-1.52-6.75-1.25-4.47-1.9-6.7-1.27-4.5-1.83-6.78c-.21-1-.42-2.08-.57-3.13s-.27-2.12-.39-3.18c-.21-3.92-.13-7.83,0-11.75s.49-7.93.65-11.89.13-7.92.11-11.87c0-4.17-.06-8.34-.11-12.52-.07-4.78-.07-9.56-.23-14.35-.15-4.6-.34-9.2-.64-13.78s-.65-9-1.33-13.52-1.66-9.22-2.09-13.89c-.17-3-.17-6-.22-9-.05-3.21-.08-6.42-.18-9.62a86.72,86.72,0,0,0-.83-10.06c-.45-3-1-6-1.66-9-.82-4-1.63-8.08-2.26-12.16,0-1.27,0-2.54,0-3.81-.14-4.33-.81-8.62-1.13-12.93,0,.44.06.88.08,1.32-.19-3-.45-6-.72-9,0-1.89,0-3.77,0-5.66,0-2.92,0-5.84-.15-8.76a69.62,69.62,0,0,0-.75-8.66c-.21-1.24-.41-2.51-.74-3.73s-.65-2.26-1-3.39c-.69-2.15-1.42-4.28-2.1-6.44s-1.37-4.62-1.9-7-1-4.46-1.65-6.67-1.33-4.66-2.17-6.94-1.73-4.33-2.56-6.51c-1.69-4.38-3.45-8.73-5.19-13.11-.85-2.15-1.64-4.33-2.53-6.47s-1.92-4.45-3-6.61c-1-2-2.1-3.92-3.19-5.86s-2.19-4-3.29-6-2.31-4.22-3.41-6.36-2.13-4.13-3.25-6.18-2.28-4.13-3.58-6.11-2.61-3.67-3.92-5.51c-1.34-2-2.56-4.12-3.72-6.25-1.26-2.31-2.51-4.63-3.73-7-2.44-4.7-5.08-9.3-7.49-14l0,.07,0-.08-.18-.37.15.3c-1.32-2.68-2.56-5.4-3.88-8.08a77.86,77.86,0,0,0-4.32-7.79,89,89,0,0,0-5.44-7.79c-.95-1.18-1.94-2.32-2.93-3.47-.67-.77-1.37-1.53-2-2.32a8,8,0,0,0-1.43-1.64h0a1.11,1.11,0,0,0-.07-.16,5.68,5.68,0,0,0-3.57-3.15,3.92,3.92,0,0,0-1-.19,1.17,1.17,0,0,0-1.64-.63,8.83,8.83,0,0,0-1,.33,7.15,7.15,0,0,0-1.46.74c-1.08.66-2.15,1.35-3.21,2a17.9,17.9,0,0,0-2.71,2,35.54,35.54,0,0,0-4,5.19c-1.28,1.84-2.58,3.68-3.71,5.62s-2.27,4.13-3.4,6.2-2.38,4.17-3.56,6.25-2.37,4.41-3.46,6.67c-1,2-1.79,4.13-2.57,6.24s-1.46,4.34-2.1,6.52-1.36,4.56-2.09,6.83c-1.31,3.73-2.73,7.43-3.92,11.19-.62,2-1.15,4-1.62,6s-.71,3.92-1,5.89c-1.18,7.75-1.61,15.59-2.64,23.36-.3,2.29-.72,4.57-1.15,6.84s-.92,4.61-1.15,6.95c-.47,4.76-.58,9.53-.65,14.32s-.11,9.44-.3,14.15-.23,9.35-.28,14c0,.5,0,1,0,1.49a32.73,32.73,0,0,0-4.13-2.22,50.67,50.67,0,0,0-11.08-3.1l-.08,0c-1.2-.76-2.41-1.51-3.61-2.28a2.38,2.38,0,0,0-.87-.94,3.49,3.49,0,0,0-1.14-.49c-.53-.41-1.06-.84-1.58-1.29-1.66-1.5-3.29-3.06-5.07-4.42a6.35,6.35,0,0,0-9.74,2.55,21.17,21.17,0,0,0-1,2.68,36.27,36.27,0,0,0-.78,3.55c-.69,3.42-1.37,6.84-1.75,10.31a123.64,123.64,0,0,0-.6,12.47c-.05,3.82-.16,7.63-.41,11.44a94.88,94.88,0,0,0-.35,10.11C537.92,723.32,538,725.41,538.25,727.5Z" transform="translate(-461.39 -449.08)"/>
    <polygon class="cls-1" points="98.89 225.22 98.9 225.22 98.9 225.22 98.89 225.22"/>
    <path class="cls-1" d="M858.54,643.23c.5,3.81,1,7.62,1.56,11.41.5,3.1,1.07,6.19,1.51,9.29,0,.37,0,.73,0,1.09a79.55,79.55,0,0,0,1.13,9.9,2.28,2.28,0,0,0,0,.26c.19,3.24.32,6.48.52,9.71q.35,5.76,1,11.51c.39,3.41,1.11,6.76,1.77,10.12.71,3.6,1.32,7.21,2.07,10.8.67,3.22,1.51,6.39,2.18,9.6.21,1,.41,2,.62,3l0-.09c.07.35.14.69.22,1a37.18,37.18,0,0,0,3.64,10.23,48.69,48.69,0,0,0,7.05,9.24,42.53,42.53,0,0,0,3.63,3.6A40.43,40.43,0,0,0,890,757.3c1.4.89,2.88,1.64,4.36,2.39,1.68.85,3.34,1.73,5,2.51a75.42,75.42,0,0,0,9.87,3.45,57.72,57.72,0,0,0,10.56,2.25c3.52.38,7,.86,10.56,1.25q5.63.61,11.29,1c1.7.13,3.4.27,5.09.46s3.51.42,5.26.56c3.66.3,7.34.42,11,.47h2.12c1.06,0,2.12,0,3.18-.06a37.5,37.5,0,0,0,6.05-.94,92.62,92.62,0,0,0,9.85-2.73c3.45-1.13,6.85-2.37,10.23-3.64a50,50,0,0,0,9.45-4.8,41,41,0,0,0,8.89-7,43.56,43.56,0,0,0,5.87-8.72,34.74,34.74,0,0,0,2.49-5.66c.53-1.73,1-3.46,1.37-5.22q1.14-5,2.18-10c1.45-7,2.88-14.09,3.63-21.24.14,1.07.28,2.14.41,3.21.37,3.26.55,6.54.85,9.81s.74,6.75,1.26,10.11c.26,1.74.53,3.46.8,5.2a26.79,26.79,0,0,0,1.17,5.31,30.64,30.64,0,0,0,2.11,4.76,47.72,47.72,0,0,0,2.84,4.35,45.1,45.1,0,0,0,7.14,8.09,43,43,0,0,0,4,2.88c1.51,1,3.07,2,4.6,3,1.36.9,2.72,1.8,4.12,2.64a39.32,39.32,0,0,0,4.75,2.43,41.77,41.77,0,0,0,10.45,2.65c1.67.26,3.37.37,5,.55s3.4.46,5.08.77l.79.16-.21-.05.78.16.09,0,2.24.48a55.25,55.25,0,0,0,7.25,1c.89,0,1.79.09,2.69.09a24.1,24.1,0,0,0,2.82-.15c1.74-.2,3.47-.45,5.19-.76,1.55-.27,3.09-.62,4.64-.89,1.75-.3,3.5-.56,5.27-.75a82.34,82.34,0,0,0,10-1.56c3.37-.78,6.7-1.72,10.08-2.45l1-.21c3.4-.68,6.83-1.3,10.18-2.21s6.51-1.9,9.74-2.88c1.69-.52,3.39-1,5-1.66s3.21-1.38,4.8-2.12c3.12-1.47,6.46-2.43,9.4-4.27a36.25,36.25,0,0,0,8.38-7.24c2.29-2.68,3.74-6.07,5.1-9.29a73.8,73.8,0,0,0,3.43-9.9c.87-3.29,1.51-6.62,2.37-9.91.9-3.45,1.81-6.88,2.48-10.39s1.22-6.77,1.58-10.18c.76-7,1.15-14.08,1.22-21.15,0-2-.12-3.89-.3-5.83-.15-1.77-.5-3.52-.78-5.26-.54-3.34-1.13-6.66-1.52-10-.8-6.87-1.75-13.75-2.27-20.65-.07-1.12-.15-2.23-.23-3.35l0,.35,0-.21,0,.36c-.5-10.27-.36-20.57-1.06-30.84v.1l-.15-2.14c0,.17,0,.34,0,.51,0-.1,0-.21,0-.32v-.12l0-.36c-.18-2.45-.48-4.89-.77-7.34-.31-2.62-.61-5.24-1-7.86s-.8-4.94-1.28-7.4-1.1-4.94-1.64-7.42-.84-5.06-1.21-7.6-.83-5.07-1.28-7.6c-.49-2.75-1.1-5.47-1.7-8.21-.56-2.58-1.13-5.15-1.88-7.68-1-3.47-2.41-6.84-3.7-10.22-1.16-3-2.46-6-3.74-8.94q-2.12-4.87-4.67-9.53c-1.73-3.15-3.79-6.1-5.82-9.06a96.22,96.22,0,0,0-6.09-8.1c-2.24-2.65-4.78-5.05-7.17-7.55s-4.47-4.88-6.7-7.33-4.56-4.58-6.74-7l-3.18-3.63c-1.53-1.76-3-3.51-4.72-5.15a68.63,68.63,0,0,0-5.27-4.52l-1.14-.92a5.4,5.4,0,0,0-3.49-1.34,5,5,0,0,0-4,2.05l-.16.13-1.85,1.66-.42.36a8.06,8.06,0,0,0-3.89,2c-.65.49-1.31,1-1.94,1.51-1.65,1.41-3.26,2.86-4.87,4.32-2.8,2.56-5.48,5.27-8.17,7.94-1.27,1.27-2.53,2.54-3.76,3.85l-2.16,2.32a33.81,33.81,0,0,0-2.39,2.71,3.85,3.85,0,0,0-.74,2.56c-1.72,1.7-3.37,3.46-5,5.31a80.84,80.84,0,0,0-10.62,16.33c-1.78,2.46-3.62,4.9-5.35,7.41-2,2.89-3.84,5.86-5.55,8.92s-3.45,6.19-5.06,9.35-3,6.1-4.45,9.21-2.84,6.28-4.11,9.48-2.63,6.61-3.89,9.93-2.29,6.69-3.31,10.08-1.85,6.8-2.55,10.27-1.47,7-2,10.6-1,7-1.4,10.5-.73,6.9-1.07,10.35-.88,7.11-1.33,10.67c-.41,3.31-.83,6.62-1.13,9.94-.41,4.58-.55,9.19-.59,13.8,0-.35-.08-.71-.11-1.06-.22-2.21-.5-4.41-.74-6.61s-.4-4.26-.56-6.4c-.11-1.83-.18-3.68-.39-5.49s-.49-3.77-.78-5.66-.58-3.89-.9-5.84-.7-3.68-1.08-5.51l0,.15,0-.26,0-.18,0,.09c-.16-.77-.31-1.54-.47-2.3l0,.17a1.29,1.29,0,0,0,0-.19l-.11-.54c0,.17.07.35.11.52-.19-1-.38-2-.58-2.92v0h0c0-.08,0-.16,0-.23v0l0,.13c0-.07,0-.15-.05-.23s-.06-.33-.1-.5a2.38,2.38,0,0,1,0,.26c0-.26-.1-.52-.16-.78l0,.08a.5.5,0,0,1,0-.12c-.05-.21-.09-.41-.13-.62l.06.29c-.63-3-1.42-5.93-2.22-8.88-.43-1.57-.86-3.14-1.34-4.7-.41-1.36-.91-2.7-1.35-4.06-1.06-3.31-2.14-6.6-3.39-9.84-1.05-2.75-2.1-5.48-3.09-8.24-1.35-4-2.63-8.11-4-12.16-.72-2.19-1.36-4.41-2-6.62-.62-2-1.31-4-2-6.05-1.07-3.15-2.11-6.32-3.26-9.46a68.52,68.52,0,0,0-3.69-9.06c-1.55-2.85-3.17-5.67-4.83-8.46-1.58-2.62-2.92-5.39-4.3-8.11-.9-1.85-1.78-3.72-2.7-5.57a51,51,0,0,0-4.28-7.31,37.26,37.26,0,0,0-2.85-3.53c-1-1-2-2-3-2.95-2-1.82-3.94-3.61-5.92-5.41s-3.94-3.67-6-5.41a107.71,107.71,0,0,0-17.21-11.57c-1.56-.87-3.15-1.69-4.73-2.51s-3.28-1.75-5-2.45c-1.49-.61-3-1.15-4.47-1.79-.73-.31-1.45-.63-2.18-1a10.2,10.2,0,0,0-1-.45,6.07,6.07,0,0,0-2.15-.44,7.9,7.9,0,0,0-1.61.22A5.36,5.36,0,0,0,920,456.3a4,4,0,0,0-.25.76,2.31,2.31,0,0,0-.39.31l-.16.15h0a3.44,3.44,0,0,0-2.46,1.68l-.09.17-.18.27-.85.59.82-.55,0,0a22.68,22.68,0,0,0-4.73,4.26,43.92,43.92,0,0,0-2.68,3.88q-1.38,2.07-2.74,4.14t-2.9,4.08c-.85.88-1.69,1.77-2.51,2.67a123.75,123.75,0,0,0-10.67,13.1l-2.49,3.75.61-.9c-3.17,4.75-6.26,10-7.09,15.52A172.44,172.44,0,0,0,874.47,528c-1.06,3.31-2.2,6.59-3.1,9.95s-1.85,6.73-2.91,10.06-2.22,6.84-3.24,10.28-1.93,7-2.79,10.59-1.46,7-2,10.62c-.5,3.39-.76,6.81-1.05,10.23-.6,7.14-1.46,14.26-1.9,21.42-.22,3.63-.35,7.27-.42,10.91,0,1.77-.13,3.55-.1,5.32,0,1.95.12,3.87.26,5.81C857.48,636.53,858.11,639.88,858.54,643.23Zm181.24,91h0c.47,1,1,1.93,1.43,2.89-.28-.45-.55-.91-.8-1.39S1040,734.72,1039.78,734.22Zm43,33h0l-.24,0,.69.14ZM978.14,511.84l-.3-1c.19.4.4.79.59,1.18Zm-61.7-52.17h0l0,0h0Z" transform="translate(-461.39 -449.08)"/>
    <path class="cls-1" d="M983.9,497.57a.8.8,0,0,0,.08.16l.16.33Z" transform="translate(-461.39 -449.08)"/>
    <path class="cls-1" d="M1193.05,593.28c0,.06,0,.12,0,.17s0,0,0,.07S1193.06,593.36,1193.05,593.28Z" transform="translate(-461.39 -449.08)"/>
    <path class="cls-1" d="M1197.58,703.8c-.4,2.2-.68,4.41-.91,6.64s-.32,4.47-.44,6.71c-.24,3.2-.6,6.37-1.13,9.54-.58,3.34-1.19,6.69-1.75,10-.28,1.66-.58,3.32-.76,5q-.31,2.76-.49,5.55a44.79,44.79,0,0,0,.07,5.05c.09,1.79.25,3.57.46,5.35a44,44,0,0,0,2.59,10.16,61.32,61.32,0,0,0,4.28,9.23,56.32,56.32,0,0,0,6.06,8.5,85,85,0,0,0,7.34,7.11c2.47,2.29,5,4.53,7.38,6.9,1.21,1.2,2.41,2.41,3.65,3.58s2.55,2.29,3.88,3.39a41.49,41.49,0,0,0,4.13,3,24.16,24.16,0,0,0,4.69,2.27q2.3.87,4.61,1.71a34.2,34.2,0,0,0,4.84,1.48l.46.09.1,0a21.85,21.85,0,0,0,4.42.5h.35c1.08,0,2.14-.09,3.21-.19.75-.07,1.49-.21,2.23-.33a32.15,32.15,0,0,0,5.47-1.53,54.3,54.3,0,0,0,9.29-4.69,55.31,55.31,0,0,0,8.47-5.58c2.69-2.33,5.28-4.75,7.8-7.27,1.13-1.14,2.27-2.27,3.37-3.43s2.26-2.45,3.37-3.69,2.3-2.58,3.54-3.77,2.56-2.44,3.81-3.68c4.8-4.71,9.35-9.67,13.72-14.79a80.44,80.44,0,0,0,6.39-8.34,39.47,39.47,0,0,0,2.35-4.34c.79-1.65,1.55-3.31,2.31-5,1.36-3,2.64-6,3.7-9.18a63.59,63.59,0,0,0,2.71-10c.59-3.43,1.09-6.89,1.36-10.36s.38-7.17.45-10.76c.13-6.74-.23-13.47-.16-20.21,0-3.39.18-6.77.37-10.15s.24-6.78.26-10.18,0-6.94-.1-10.41-.23-6.91-.39-10.36-.23-6.79-.27-10.19,0-6.78,0-10.16c0-1.61,0-3.23-.1-4.84q-.18-2.85-.47-5.7c-.33-3.19-.73-6.37-1-9.56-.31-5.27-.37-10.54-.73-15.8-.22-3-.7-5.94-1.14-8.9s-.92-5.61-1.47-8.41c-.66-3.3-1.08-6.65-1.65-10s-1.17-6.9-2-10.31a38,38,0,0,0-1.74-5.18c-.62-1.62-1.3-3.22-2-4.79s-1.54-3.1-2.33-4.62a44.7,44.7,0,0,0-2.44-4.26c-1-1.4-1.91-2.78-3-4.1-.87-1.11-1.77-2.2-2.64-3.3-1.92-2.37-3.78-4.76-5.53-7.25-1.55-2.32-3-4.67-4.44-7.1a62.85,62.85,0,0,0-4.87-7.32c-1.87-2.39-3.9-4.67-6-6.9q-1.47-1.59-2.92-3.19a28,28,0,0,0-3.1-3.16,9.51,9.51,0,0,0-5.61-2.1,6.33,6.33,0,0,0-3.69.86,2.55,2.55,0,0,0-.66.61c-.08.09,0,.16,0,.27a17,17,0,0,0-1.61,1.85c-.78,1-1.54,1.92-2.27,2.92l-.41.54a2.69,2.69,0,0,0-.5.51c-3.35,4.16-6.24,8.72-9.18,13.16-.45.68-.89,1.36-1.33,2-1.93,1.88-3.84,3.76-5.61,5.79-2.12,2.45-4,5-6.07,7.58s-4.07,4.89-5.87,7.51c-1.1,1.61-2.17,3.23-3.24,4.85a25.88,25.88,0,0,0-6.13,5.87,77.67,77.67,0,0,0-6.9,11.31c-1.72,3.33-3.5,6.66-5,10.09-1.65,2.77-3.19,5.58-4.65,8.47l-.15.31,0-.09h0l-1,1.94a115.84,115.84,0,0,0-7.21,18.76,74.86,74.86,0,0,0-2,9.83c-.49,3.31-1,6.62-1.61,9.91s-1,6.56-1.32,9.87c-.34,3.57-.5,7.15-.63,10.74-.26,6.66-.5,13.32-.93,20-.22,2.92-.5,5.82-.84,8.73s-.65,5.78-.81,8.68-.28,6.07-.35,9.12c-.06,2.8-.09,5.6-.23,8.41-.16,2.1-.34,4.2-.69,6.28C1198.39,699.27,1198,701.54,1197.58,703.8Z" transform="translate(-461.39 -449.08)"/>
    <path class="cls-1" d="M1314.41,978.76h0c.28-.36.55-.73.82-1.09a1.83,1.83,0,0,0,.13.72,1.78,1.78,0,0,0,1.66,1.08,2.09,2.09,0,0,0,.69-.12,8.1,8.1,0,0,0,2.37-1.75l-.19.18,2.69-2.37-.21.19a72.47,72.47,0,0,0,5.78-5.44c1.76-1.91,3.47-3.87,5.24-5.77,1.92-2.06,3.85-4.1,5.72-6.21,1.65-1.87,3.25-3.79,4.89-5.68,1.93-2.12,3.94-4.16,5.88-6.27s4-4.48,5.95-6.83c3.85-4.71,7.64-9.46,11.62-14,3.64-4,7.45-7.79,11.18-11.69,3.43-3.59,6.54-7.46,9.7-11.29,2.89-3.52,6-6.9,8.75-10.49,1.41-1.82,2.77-3.69,4.17-5.52s3.06-3.92,4.57-5.89c3-3.85,5.86-7.78,8.81-11.65,1.4-1.83,2.84-3.63,4.25-5.46s2.84-3.9,4.17-5.91,2.74-4.12,4-6.24,2.42-4.19,3.57-6.33,2.34-4.3,3.38-6.53,2-4.35,3-6.51c2.06-4.29,4-8.66,5.79-13.07.92-2.24,1.67-4.55,2.44-6.84.16-.46.31-.93.46-1.39l.48,2.19q.66,2.91,1.45,5.78c.59,2.11,1.33,4.16,2,6.22-.07-.22-.15-.43-.22-.64,1,2.73,1.88,5.48,3,8.14,1.59,3.79,3.29,7.55,5.13,11.21a58.9,58.9,0,0,0,2.93,5.35c1.16,1.83,2.36,3.65,3.63,5.4a47.2,47.2,0,0,0,4.35,5.22,46.18,46.18,0,0,0,4.56,4,82.13,82.13,0,0,0,10.13,7,14.64,14.64,0,0,0,4.91,2,12.2,12.2,0,0,0,1.91.15,15.24,15.24,0,0,0,5.32-1,28.35,28.35,0,0,0,9.42-6.43c.08.56.17,1.12.25,1.68.32,2.12.45,4.28.64,6.41s.33,4,.52,6c.35,3.59.57,7.19,1.07,10.76.47,3.4,1,6.8,1.49,10.18q.42,2.7.89,5.38a10.16,10.16,0,0,0,1,3.81,3.74,3.74,0,0,0,3.23,1.78,5.25,5.25,0,0,0,.56,0,5.18,5.18,0,0,0,3.84-3.3c.52-1.13,1-2.27,1.56-3.38,1.21-2.35,2.52-4.63,3.78-7,1.35-2.51,2.61-5.09,3.88-7.64s2.77-5.17,4.31-7.66,3.21-5,4.82-7.55,3.18-5.12,4.75-7.7,3.1-4.95,4.72-7.39c1.85-2.79,3.73-5.55,5.49-8.4q1.49-2.39,2.91-4.8a55.92,55.92,0,0,0,2.69-4.92c1.55-3.28,2.79-6.69,4-10.1.6-1.65,1.15-3.33,1.61-5s.83-3.4,1.18-5.11q.75-3.63,1.25-7.3a38.91,38.91,0,0,0-.33-10.67c-.51-3.46-1-6.91-1.61-10.34-.35-1.92-.7-3.84-1.14-5.73a30.06,30.06,0,0,0-1.72-5.05,28.66,28.66,0,0,0-2.82-5,32.71,32.71,0,0,0-3.38-3.78,70.74,70.74,0,0,0-6.55-6.29,31.23,31.23,0,0,0-8.18-4.83,11.56,11.56,0,0,0-4.54-.82,11.34,11.34,0,0,0-3.09.64,48.53,48.53,0,0,0-4.82,1.73,20.37,20.37,0,0,0-3,1.49,20.14,20.14,0,0,0-2.69,1.08,12.25,12.25,0,0,0-3,2.21c-.79.81-1.52,1.68-2.24,2.54.1-1.16.19-2.33.3-3.5.36-3.94.86-7.88,1.26-11.82s.7-8,1.26-12,1.32-8.17,1.93-12.26.8-8,1-12c.31-4.32.61-8.66.66-13a56.79,56.79,0,0,0-.4-7.49c-.26-2.06-.7-4.09-1.1-6.12-.78-4-1.51-8.16-3.23-11.91a28.65,28.65,0,0,0-7.55-10.3,10.61,10.61,0,0,0-4-2.14,12.24,12.24,0,0,0-7.28.39,10.47,10.47,0,0,0-1.76.83h-.06c-2.1.22-4.13,1.89-5.75,3.09l-.55.41-.72.42h0c-1.16.61-2.3,1.27-3.43,2l-1,.65c-1.08.61-2.17,1.23-3.18,1.94a4,4,0,0,0-1.13,1.24l-1.24,1c-2.33,1.85-4.58,3.82-6.72,5.87-.79.76-1.68,1.59-2.55,2.48.07-1.84.14-3.68.25-5.51,0,0,0,.09,0,.13v-.17c0-.12,0-.24,0-.37,0,.1,0,.2,0,.3q.32-4.2.58-8.4l0-.3c.18-2.43.4-4.85.69-7.27s.61-5,.82-7.49c.39-4.66.67-9.32.73-14,.07-4.85.08-9.7-.11-14.54-.1-2.39-.18-4.79-.38-7.17-.18-2.19-.39-4.37-.56-6.56s-.25-4.34-.56-6.49-.71-4.54-1.1-6.81-.9-4.56-1.48-6.82c-.51-2-.94-4-1.47-6a116.62,116.62,0,0,0-4.4-13.11c-.77-2-1.57-4-2.5-5.88s-2-3.83-3-5.75c-1-2.18-1.93-4.39-2.75-6.66a55.37,55.37,0,0,0-2.26-5.91c-1-2.08-2-4.18-3.1-6.19-1-1.76-2.06-3.48-3.1-5.2s-2.17-3.58-3.28-5.35-2.22-3.7-3.26-5.6-1.8-3.57-2.86-5.26c-1.55-2.45-3.32-4.75-5-7.13l-.19-.35.11.22a5.35,5.35,0,0,0-2.64-2.52,5.2,5.2,0,0,0-6.83,6.76c-.39.89-.8,1.78-1.24,2.66-2.21,4.2-4.45,8.39-6.66,12.59s-4.5,8.54-6.86,12.76-4.81,8.61-7.39,12.82c-1.14,1.87-2.29,3.72-3.38,5.62-1.27,2.19-2.5,4.4-3.79,6.58-2.44,4.18-4.89,8.34-7.34,12.52s-4.65,8.29-6.78,12.55l0,0c-1.21,2.41-2.4,4.84-3.54,7.28-2.14,4.58-4.16,9.2-6.27,13.79-1,2.18-2,4.37-3,6.55s-1.93,4.2-2.85,6.32-1.87,4.41-2.85,6.59-2,4.3-3,6.43c-2,4.23-3.93,8.52-6,12.72l0-.07c-1.88,3.61-3.73,7.22-5.55,10.86-.88,1.78-1.75,3.57-2.54,5.4a41.23,41.23,0,0,0-1.83,5.64c-1,3.83-1.75,7.74-2.47,11.64q-.59,3.06-1.16,6.1c-.36,1.85-.74,3.69-1,5.55-.36,2.2-.61,4.41-.87,6.63-.27,2.4-.58,4.79-.9,7.19-.6,4.53-1.25,9-1.78,13.59a138.61,138.61,0,0,0-.89,14.4c-.06,4.68.11,9.37-.15,14-.11,1.42-.24,2.85-.44,4.27-.22,1.57-.49,3.14-.78,4.69-.26,1.39-.54,2.78-.74,4.18-.22,1.59-.41,3.18-.56,4.78-.42,4.59-.43,9.24-.5,13.86s-.08,9.39-.17,14.08-.23,9.39-.22,14.09c0,2.35.16,4.71.31,7.06s.34,4.64.52,7a170.71,170.71,0,0,1,.28,18.79c-.29,6-.41,12.06-.8,18.08q-.27,3.24-.65,6.45c-.51,4.48-1.28,8.92-1.63,13.41-.19,2.4-.41,4.8-.74,7.19s-.67,4.53-.92,6.8-.45,4.75-.74,7.12-.66,4.58-1,6.86c-.81,4.69-1.59,9.4-2.54,14.08-.36,1.61-.72,3.23-1,4.86s-.65,3.08-.89,4.64c-.44,2.85-.78,5.71-1.32,8.54-.47,2.17-1,4.29-1.69,6.41l-1,3.2c-.31,1-.65,2-.88,3.06a47.42,47.42,0,0,0-.89,6.59,30.53,30.53,0,0,0-.13,3.31c0,1.08.22,2.18.37,3.26ZM1554.64,823.5l0,.07s0,0,0-.05Zm-54.21,31.89.42-.2c-.17.28-.33.55-.51.83C1500.37,855.81,1500.41,855.6,1500.43,855.39ZM1477,853.58l0,.06-.09-.09Z" transform="translate(-461.39 -449.08)"/>
    <path class="cls-1" d="M1564,821.09l0,.06a.69.69,0,0,1,0,.13A1.62,1.62,0,0,1,1564,821.09Z" transform="translate(-461.39 -449.08)"/>
    <path class="cls-1" d="M715.91,703.45l0,8.52c0,3.3,0,6.61,0,9.92,0,1.61,0,3.22,0,4.84s.22,3.47.4,5.21a49.25,49.25,0,0,0,1.75,9.55c1,3.06,2,6.16,3.21,9.13s2.74,5.7,4.06,8.58c.25.53.49,1.07.73,1.61a16.88,16.88,0,0,0,1.11,2.87,34.68,34.68,0,0,0,2.21,3.84c.13.21.23.42.36.63a43,43,0,0,0,4.77,6.45,47,47,0,0,0,5.45,8.32c2.65,3.12,5.6,6.2,9.26,8.15a37.61,37.61,0,0,0,3.41,1.61c.68.73,1.38,1.45,2.11,2.14a38.13,38.13,0,0,0,8,5.72,55.76,55.76,0,0,0,9,4,66.75,66.75,0,0,0,9.51,2c3.17.55,6.34,1.17,9.49,1.79,2.61.56,5.21,1.18,7.86,1.49a75.69,75.69,0,0,0,8.78.57h1.84a59.7,59.7,0,0,0,7.08-.28,38,38,0,0,0,4.51-.78,19.87,19.87,0,0,0,4-1.37c2.85-1.41,5.5-3.14,8.23-4.74,1.39-.82,2.79-1.62,4.13-2.52a19.06,19.06,0,0,0,4.41-4.14c.79-1,1.49-2,2.19-3.1.85-1.28,1.62-2.62,2.38-4s1.59-2.78,2.33-4.19c1.56-3,3.13-6,4.52-9.05a95.24,95.24,0,0,0,3.67-9.65,92.14,92.14,0,0,0,2.25-9.42c.35-1.6.73-3.18,1.09-4.77.42-1.79.77-3.58,1.08-5.39a74.81,74.81,0,0,0,1.06-9.68c.32-6.76.34-13.54.42-20.31,0-3.29.13-6.58.1-9.87a84.52,84.52,0,0,0-.84-9.65c-.41-3.36-.77-6.73-1.17-10.09a97.34,97.34,0,0,0-1.74-10c-.75-3.29-1.48-6.58-2.43-9.83s-2.18-6.62-3.32-9.91l.18.52c-.09-.24-.17-.48-.25-.72,0,.07,0,.13.07.2-.15-.45-.31-.89-.46-1.34v0a110.19,110.19,0,0,1-3.2-12.15c-.5-2.69-.92-5.39-1.32-8.1-.46-3.24-.91-6.48-1.39-9.72s-.74-6.27-1-9.41c-.12-1.7-.24-3.4-.41-5.09s-.42-3.2-.67-4.79c-.5-3.06-1.2-6.09-1.84-9.12-.74-3.91-1.31-7.84-2-11.76-.55-3.13-1.16-6.24-1.73-9.36a98,98,0,0,0-2.1-9.88c-.5-1.7-1-3.41-1.61-5.08a37.38,37.38,0,0,0-2-4.58c-.74-1.4-1.57-2.73-2.41-4.06s-1.74-2.72-2.65-4.06l.29.43A58.48,58.48,0,0,1,825.4,544c-.68-1.39-1.35-2.79-2.1-4.13-.87-1.54-1.87-3-2.88-4.45-.9-1.31-1.78-2.64-2.71-3.94s-1.78-2.38-2.71-3.55c-2.09-2.61-4.1-5.3-6.32-7.8-2-2.29-4.13-4.48-6.22-6.7l-.48-.56c-1-1.21-2-2.52-3-3.78a41.93,41.93,0,0,0-3.31-3.74,40,40,0,0,0-3.89-3.34,28.07,28.07,0,0,0-4-2.73,33.1,33.1,0,0,0-4-1.77c-.84-.31-1.68-.61-2.53-.9a7.64,7.64,0,0,0-2.65-.61,4.91,4.91,0,0,0-3.48,1.31,3.59,3.59,0,0,0-.37.42c-.1.11-.21.21-.32.31l-1.87,1.74a40.5,40.5,0,0,0-3.3,3.38q-1.59,1.81-3.13,3.68c-4.09,5-7.37,10.5-10.87,15.86-2.35,3.47-4.79,6.89-7,10.43-1.77,2.78-3.34,5.68-4.89,8.58s-2.77,5.69-4.08,8.55a159.68,159.68,0,0,0-6.92,17.94c-.94,2.94-1.74,5.93-2.69,8.86-1,3.13-2,6.26-2.85,9.43a46.73,46.73,0,0,0-1.11,4.82c-.3,1.78-.47,3.56-.62,5.36-.25,3.08-.29,6.17-.43,9.26a62.94,62.94,0,0,1-1,7.38c-1.17,5.16-2.7,10.22-3.65,15.43-.62,3.39-.95,6.8-1.29,10.22-.31,3.22-.65,6.43-.83,9.65-.18,3.43-.38,6.86-.55,10.28-.16,3.05-.23,6.11-.43,9.16v0c0,.05,0,.1,0,.15a.86.86,0,0,1,0,.16v-.07a2.83,2.83,0,0,0,0,.29c0,.36,0,.72-.08,1.07v.24a.19.19,0,0,1,0-.08v.16l0,.44c-.12.73-.23,1.47-.32,2.21-.5,4.07-.76,8.2-.86,12.3-.07,3,.12,6,.12,9A92.41,92.41,0,0,0,715.91,703.45Z" transform="translate(-461.39 -449.08)"/>
  </g>
</svg>
