<svg id="Vektorlag" xmlns="http://www.w3.org/2000/svg" viewBox="0 0 963.1 490.53">
  <defs>
    <style>
      .cls-1 {
        fill: #fff;
      }
    </style>
  </defs>
  <g id="fang-bottom">
    <path class="cls-1" d="M748.72,1444.88a38,38,0,0,0-1.62-9.21,30.84,30.84,0,0,0-1.71-4.65c-.54-1.13-1-2.31-1.45-3.46a27.55,27.55,0,0,0-2.09-4,16.25,16.25,0,0,0-2.2-2.62c-.87-.89-1.72-1.79-2.64-2.63s-2.12-1.71-3.15-2.6l.67.58a19.18,19.18,0,0,0-4.58-3.21l-1.52-.71c-.9-.48-1.79-1-2.72-1.39a25.17,25.17,0,0,0-3.49-1.19,20.51,20.51,0,0,0-4.4-.78,7.86,7.86,0,0,0-4.12,1.19c-3.26,1.88-5.78,4.77-8.45,7.36-1,.85-2,1.64-3.13,2.41-1.37.86-2.81,1.61-4.17,2.5s-2.52,1.77-3.78,2.67c-.5.3-1,.59-1.51.86-2.09,1-4.22,1.93-6.37,2.8a31.17,31.17,0,0,0,1.33-7,41.47,41.47,0,0,0,.11-7.39,29,29,0,0,0-1.57-6.82,44.52,44.52,0,0,0-2.6-5.82A27.51,27.51,0,0,0,680,1397c-.87-1-1.7-2-2.47-3.1-1-1.62-1.73-3.35-2.69-5s-2.11-3.47-3.29-5.11c-2.26-3.14-4.68-6.18-6.88-9.37l.35.52c-3-4.53-6.48-8.77-9.57-13.27a52.08,52.08,0,0,1-2.73-4.75c-2.21-4.43-4.37-8.85-6.79-13.18-1.1-2-2.19-3.92-3.25-5.89-.59-1.07-1.14-2.13-1.82-3.15l0,.06c-.79-1.19-1.23-2.52-2.31-3.52a7.63,7.63,0,0,0-2.83-1.59,1.51,1.51,0,0,1-.09-.18,3.74,3.74,0,0,0-3.8-1.9,5.44,5.44,0,0,0-2.4,1.09,5.62,5.62,0,0,0-.56.25,3.17,3.17,0,0,0-.78.64c-2.26-.1-4.14,2.05-5.55,3.55a40.22,40.22,0,0,0-2.89,3.49l-1.17,1.24a25.78,25.78,0,0,0-4.07,5,3.92,3.92,0,0,0-.35.93,35.06,35.06,0,0,0-3.23,6.08c-.48,1.2-.92,2.41-1.3,3.64-.22.51-.42,1-.6,1.55l-.9-.93c-1.76-2.13-3.41-4.36-5.35-6.33-1-1-1.94-2-3-3s-2.29-2-3.45-3c-.24-.23-.48-.46-.71-.71-1.66-1.92-3.21-3.94-4.83-5.9a22,22,0,0,0-3.48-3.47c-.74-.57-1.48-1.11-2.2-1.7-1.2-1.1-2.41-2.2-3.67-3.23s-2.66-2.05-4-3.12c-.94-.87-1.86-1.75-2.82-2.6a18.3,18.3,0,0,0-1.57-1.47,8.72,8.72,0,0,0-3.37-1.49l.4.08h0a7.08,7.08,0,0,0-.8-.16h0a6.85,6.85,0,0,0-7.45,4.66c-.44.79-.81,1.64-1.16,2.4-.72,1.53-1.43,3.08-2.13,4.63-.94,2.08-1.83,4.17-2.71,6.27-1,1.93-2,3.89-2.85,5.89-.7,1.53-1.24,3.16-1.85,4.73-.42,1.11-.77,2.26-1.11,3.41l0,.05a13.51,13.51,0,0,0-.63,1.75c-.15.58-.31,1.16-.45,1.74-.23.95-.5,1.9-.7,2.86-.4,1.9-.85,3.8-1.2,5.72-.39,2.14-.78,4.27-1.11,6.42-.09.58-.17,1.16-.25,1.74-.27,1.13-.51,2.27-.73,3.4a103.13,103.13,0,0,0-1.91,15.86c-.12,2.68-.18,5.36-.3,8s-.2,5.25-.07,7.89.27,5.45.48,8.17a72,72,0,0,0,1.06,7.6c.29,1.55.61,3.08,1,4.6a38.75,38.75,0,0,0,1.34,4,66.36,66.36,0,0,0,3.48,7.33c.81,1.63,1.59,3.28,2.47,4.88s1.8,3.14,2.66,4.74a63,63,0,0,0,6.44,10.76c1.71,2.21,3.48,4.42,5.35,6.51,1.62,1.93,3.23,3.93,4.68,6a21.3,21.3,0,0,0,1.36,2,7.55,7.55,0,0,0,4.09,2.7,10.22,10.22,0,0,0,2.27.28,6.43,6.43,0,0,0,1.79-.24,6.76,6.76,0,0,0,2.95-1.76c.3-.31.55-.65.83-1a41.6,41.6,0,0,0,3.63-4.44c1.17-1.71,2.24-3.49,3.37-5.23,1-1.46,2.12-2.89,3.18-4.34.43-.6.87-1.19,1.31-1.78,0,.58.06,1.16.1,1.74.13,2,.24,4.07.3,6.1s0,4.32.11,6.48a78.09,78.09,0,0,0,1.53,13.31c.22,1.08.45,2.17.67,3.25a64.43,64.43,0,0,0,1.32,6.32,31.87,31.87,0,0,0,1.18,3.45c.41,1,.87,1.89,1.35,2.81s.84,1.87,1.2,2.84c.73,2.13,1.46,4.27,2.28,6.38.4,1,.83,2.08,1.22,3.13a37,37,0,0,0,1.33,3.61c1.14,2.28,2.55,4.44,3.84,6.63,1,1.72,2.33,3.24,3.48,4.87s2,3.17,2.86,4.81c.61,1.28,1.14,2.61,1.81,3.86s1.39,2.58,2.06,3.9c1.23,2.4,2.64,4.71,3.92,7.08.62,1.33,1.12,2.7,1.79,4a20.73,20.73,0,0,0,1.53,2.44l-.37-.55c.86,1.28,1.79,2.48,2.67,3.73,1.32,2,2.59,4.37,5.12,5.06a5,5,0,0,0,1.38.19,5.42,5.42,0,0,0,3.79-1.56,7.65,7.65,0,0,0,1.49-2.38,34.62,34.62,0,0,0,1.24-4c.62-1.73,1.28-3.44,1.83-5.19q1-3,1.89-6.12c1.13-3.83,2.33-7.64,3.19-11.54.45-2,.89-4,1.51-6s1.31-4.2,1.92-6.32c.26-.9.51-1.81.75-2.71.15,1.77.34,3.55.55,5.32a77.64,77.64,0,0,0,1.45,8.56c1.23,5.27,3.14,10.36,4.49,15.6.7,2.72,1.36,5.44,2.16,8.12s1.5,5.53,2.17,8.32c1.33,5.5,2.59,11.12,4.74,16.38,1.08,2.62,2.33,5.17,3.52,7.74,1.25,2.73,2.47,5.48,3.87,8.14,1.27,2.43,2.74,4.74,4.16,7.09,1.53,2.55,3,5.14,4.4,7.74,2.72,4.93,5.67,9.73,8.69,14.48,1.64,2.6,3.27,5.2,5,7.71,1.56,2.21,3.19,4.37,4.78,6.57,3.4,4.66,7,9.19,10.39,13.84,1.64,2.24,3.14,4.59,4.84,6.77s3.2,4.39,4.85,6.55c.56.74,1.13,1.47,1.68,2.22A11.74,11.74,0,0,0,730,1669a5.92,5.92,0,0,0,4,1.66,5.11,5.11,0,0,0,2-.42,5.52,5.52,0,0,0,3.32-5,10.46,10.46,0,0,0-.76-3.34c-.39-1.27-.72-2.56-1-3.85-.19-1-.39-2-.49-3-.12-1.23-.18-2.48-.42-3.7-.38-1.93-.78-3.86-1-5.82s-.24-3.93-.48-5.89a83.7,83.7,0,0,0-2.74-12.81c-.6-2.13-1.06-4.28-1.61-6.43s-1.29-4.49-1.83-6.77c-.14-.79-.25-1.57-.34-2.38-.17-3.2,0-6.42-.09-9.64-.06-3-.25-5.9-.49-8.84-.42-8.48.18-17,.56-25.48.31-4.21.7-8.42,1.14-12.61.46-4.43,1.21-8.83,1.63-13.26.44-4.58,1-9.12,1.62-13.67.28-2.09.44-4.19.65-6.29s.5-4.25.9-6.36,1.17-4.35,1.63-6.55.83-4.25,1.23-6.37c.83-3.64,1.78-7.27,2.75-10.87,1-3.8,2.26-7.53,3.34-11.32a68.27,68.27,0,0,0,2.26-8.79c.38-2.76.62-5.53,1-8.29.42-3.09,1-6.17,1.45-9.24A45.47,45.47,0,0,0,748.72,1444.88Z" transform="translate(-542.56 -1281.27)"/>
    <path class="cls-1" d="M844.1,1659.11c-.21-1.12-.48-2.21-.79-3.3-1.25-4.38-2.27-8.81-3.27-13.25-.45-2-.85-4-1.44-6-.64-2.17-1.25-4.35-1.76-6.56-1-4.42-2.33-8.75-3.3-13.18-.91-5-1.81-10-2.65-15-.42-2.53-.87-5.07-1.3-7.6-.38-2.28-.64-4.56-.82-6.85-.31-6.79-.33-13.59-.35-20.39,0-2.15,0-4.3,0-6.46s-.13-4.5-.18-6.76-.06-4.54-.09-6.82-.18-4.71-.29-7.08c-.21-4.53-.13-9.08-.05-13.62,0-1.84,0-3.67,0-5.51,0-.47,0-.94,0-1.41a387.8,387.8,0,0,0,1.27-40.9,2.43,2.43,0,0,0,0-.27c0-2.19-.11-4.4-.09-6.6.06-4.37.12-8.74.33-13.11.26-3.35.59-6.68.8-10,.19-3.07.26-6.15.45-9.23.36-3.56.9-7.09,1.51-10.62q.51-2.93,1-5.84c.31-1.66.67-3.3.91-5,.66-4.59,1.27-9.19,1.74-13.8.22-2.21.42-4.42.72-6.62s.63-4.58.87-6.88c.26-2.46.53-4.92.73-7.38.18-2.23.21-4.46.21-6.69s-.13-4.56-.09-6.83.17-4.44.32-6.66a77.25,77.25,0,0,1,1.17-8.15c.5-2.58,1-5.14,1.4-7.74a45.71,45.71,0,0,0,.51-7.84c-.08-2.39-.32-4.76-.23-7.15.06-.49.13-1,.21-1.45.28-1.17.61-2.31,1-3.45a3.82,3.82,0,0,1-.13.36,36.25,36.25,0,0,0,1.51-5.09l-.08.38c.15-.64.31-1.27.44-1.9v.08c.06-.23.12-.46.19-.69a2.66,2.66,0,0,0,.08-1.12,2.87,2.87,0,0,0,1.06-3.36,3,3,0,0,0,1.64-2.62,3.79,3.79,0,0,0-.43-2,3,3,0,0,0-3.37-1.35,7.22,7.22,0,0,0-2.79,1.72c-.8.73-1.55,1.52-2.28,2.31-1.37,1.47-2.76,2.92-4.08,4.43-2.6,3-5,6.13-7.44,9.26s-4.41,6.76-6.65,10.11c-2.55,3.67-5.05,7.38-7.45,11.16s-4.7,7.78-7.18,11.59c-1.4,2.07-2.86,4.11-4.29,6.16s-2.81,4-4.12,6c-2.75,4.25-5.36,8.59-8.16,12.81q-1.3,1.91-2.64,3.79c-2.57,3.62-5.05,7.32-7.27,11.16s-4.63,7.74-6.81,11.69c-2.1,3.78-4.22,7.56-6.24,11.39s-3.9,7.79-5.83,11.69a87.84,87.84,0,0,0-5,12.06c-.63,2-1.17,4-1.76,6a31.76,31.76,0,0,0-1.31,6c-.42,4.32-.85,8.65-.92,13,0,1.63,0,3.27,0,4.9-.21,1.16-.43,2.33-.63,3.5a87.81,87.81,0,0,0-.87,10c-.58,8.39-.58,16.8-1.09,25.19-.21,3-.39,6-.58,9.07l0-.35,0,.36-.06,1,.06-1c-.33,4.75-.64,9.5-.78,14.26a177.3,177.3,0,0,0,1,22.1c.35,3.64.94,7.24,1.55,10.83.3,7.53.34,15.07.18,22.61a135.92,135.92,0,0,0,.14,13.69c.35,4.58.81,9.16,1.35,13.73,1,9,2.29,17.9,3,26.89.08,1.26.15,2.51.18,3.76a59,59,0,0,0,1.83,13.62c.57,2.15,1.27,4.27,1.84,6.42s1.13,4.42,1.7,6.63,1.11,4.39,1.68,6.58,1.31,4.34,2,6.49a117.14,117.14,0,0,1,3.69,12.82,48.23,48.23,0,0,0,1.52,6c.66,1.94,1.28,3.9,2.1,5.77a77.85,77.85,0,0,0,5.89,10.85,63.79,63.79,0,0,0,7.78,9.63c2.58,2.7,5.22,5.34,8,7.85.8.73,1.59,1.46,2.41,2.17a8.67,8.67,0,0,0,1.55,1.13,11.81,11.81,0,0,0,4,1.42,24.79,24.79,0,0,0,2.81.29,5.09,5.09,0,0,0,2-.37c2-.83,2.86-2.63,3.82-4.39.51-.94,1.05-1.84,1.62-2.74,2.43-3.77,4.77-7.59,7.23-11.34,1.25-1.9,2.4-3.86,3.56-5.81s2.36-3.85,3.5-5.8,2.23-3.76,3.43-5.59,2.39-3.62,3.43-5.52c2.14-4,3.84-8.13,5.82-12.17a34,34,0,0,0,1.49-3.18c.48-1.3.94-2.59,1.33-3.91.63-2.1,1.09-4.25,1.64-6.37a56.8,56.8,0,0,0,2-13.78c0-2.18,0-4.35,0-6.53A22.92,22.92,0,0,0,844.1,1659.11Z" transform="translate(-542.56 -1281.27)"/>
    <path class="cls-1" d="M903.63,1745.64l-.11.16-.1.15Z" transform="translate(-542.56 -1281.27)"/>
    <path class="cls-1" d="M1308.66,1560.91c-.15-6.36-.38-12.74-.27-19.09s.69-12.8.62-19.21c-.09-6.82-.23-13.6-.92-20.39-.32-3.15-.65-6.28-1.16-9.41s-1-6.37-1.2-9.61c-.23-3-.43-6.08-.76-9.11s-.65-6-.89-9.06c-.41-6.67-.91-13.35-2.61-19.85a58.39,58.39,0,0,0-3.2-9.68c-.67-1.48-1.35-3-2.13-4.38s-1.51-2.58-2.24-3.88c-1.29-2.7-2.31-5.52-3.48-8.28s-2.72-5.63-4.22-8.37c-1.61-2.93-3.12-5.9-4.88-8.75-1.61-2.6-3.1-5.26-4.63-7.92s-3.27-5.35-5-8-3.43-5.51-5.19-8.25a70.86,70.86,0,0,0-5.23-7.54c-2-2.32-3.79-4.76-5.74-7.1s-3.87-4.85-5.93-7.18l.25.27c-1.55-1.79-3-3.64-4.46-5.51-1.29-1.67-2.68-3.25-4-4.89-2.8-3.52-5.82-6.87-8.37-10.58-.83-1.33-1.57-2.71-2.34-4.08a23.48,23.48,0,0,0-4.11-5.3c-1.79-1.74-3.52-3.52-5.4-5.16-.23-.22-.45-.45-.66-.68-.67-.8-1.36-1.58-2-2.36a17.32,17.32,0,0,0-3.11-3.45,25.43,25.43,0,0,0-3.4-2l.34.17c-1.09-.57-2.37-1.32-3.66-.87a3.9,3.9,0,0,0-2.48,3,3,3,0,0,0,1.36,3.53c0,.14,0,.27,0,.4a3,3,0,0,0,2.35,2.88l.18.34c.62,1.28,1.15,2.6,1.69,3.91v0a27.19,27.19,0,0,0,1.57,3.7,6.86,6.86,0,0,0,1.09,2.62c.26.34.54.65.83,1l.29.34c1,1.76,2,3.48,2.9,5.25.52,1.08,1,2.17,1.42,3.29.17.55.32,1.09.46,1.65,0,.27.09.54.13.81a5.36,5.36,0,0,0,.11,1.69,8.51,8.51,0,0,0,.3,1c.17,1.28.33,2.56.49,3.84.31,2.45.62,4.9.82,7.36a54.94,54.94,0,0,0,1.11,7.2c.51,2.33,1.28,4.59,1.78,6.92.78,4.38,1.23,8.81,1.87,13.21s1.19,8.69,1.54,13c.16,2.8.22,5.6.27,8.4s.39,5.68.64,8.52c.22,4,.15,8,.24,12,.09,4.23.2,8.47.29,12.7s.21,8.17.18,12.27c0,2-.12,4.07,0,6.09s.28,4.31.44,6.46c.48,7.45.62,14.91.6,22.38,0,7.25,0,14.54-.4,21.79-.32,3.7-.87,7.37-1.32,11.06s-.77,7.57-1.27,11.34-1.08,7.27-1.58,10.9c-.24,1.66-.48,3.32-.74,5a7.58,7.58,0,0,0-1.11.54c-.52-1.88-1.05-3.77-1.61-5.64-.84-2.83-1.44-5.71-2.31-8.53-.41-1.29-.91-2.52-1.43-3.77-.4-.94-.73-1.91-1.13-2.85a54.14,54.14,0,0,0-3.94-7.16c-1.37-2.21-2.87-4.29-4.36-6.41a19.44,19.44,0,0,0-3.17-3.54l-1.34-1.14c-.77-.76-1.47-1.56-2.27-2.28l-1.12-1a10.12,10.12,0,0,0-4.07-2.6,13.33,13.33,0,0,0-2.74-.48c-1.18-.07-2.36-.06-3.55-.13a14.17,14.17,0,0,0-4,0c-.67.13-1.36.25-2,.41a18.9,18.9,0,0,0-2.91.13,34.39,34.39,0,0,0-5.93,1.26,39.72,39.72,0,0,0-5,1.75,47.74,47.74,0,0,0-9.19,6,22.43,22.43,0,0,0-3.94,4c-1.1,1.44-2.16,2.9-3.32,4.3-.51.57-1,1.11-1.58,1.63l-.9.7c-.28.17-.56.34-.86.5-.64.31-1.3.59-2,.85-1,.31-1.94.58-2.93.81s-2.22.42-3.32.67c-.85.19-1.68.43-2.52.62-1,.17-2,.29-3,.38-1.17.05-2.33,0-3.5,0-1,0-1.9-.06-2.86,0a22.15,22.15,0,0,0-3.62.47,23.54,23.54,0,0,0-3.11.77c-.42.14-.83.29-1.24.45-.23,0-.47-.08-.71-.1a3.4,3.4,0,0,0-2,.52,3.44,3.44,0,0,0-1,.11,4.08,4.08,0,0,0-1.9,1.32,18.52,18.52,0,0,0-1.84,2.69l-2,3.23c-.48.65-.94,1.31-1.37,2a3.33,3.33,0,0,0-.5,1.4l-.09.23a1.74,1.74,0,0,0-.1.19c-.93,2-1.75,3.94-2.49,6s-1.26,4.34-2,6.49c-.53,1.46-1.23,2.86-1.72,4.34a20.17,20.17,0,0,0-.88,4.62c-.1,1.13-.18,2.27-.26,3.41a17.07,17.07,0,0,0-1.16-3.19,31,31,0,0,0-3.4-5.67,19.34,19.34,0,0,0-3.1-3.23,24.94,24.94,0,0,0-4.49-2.64l.44.22a15,15,0,0,0-4.42-1.66,21,21,0,0,0-3.16-.28c-1.81,0-3.6.23-5.4.39-1.24.07-2.49.13-3.74.08-1.4-.07-2.8-.2-4.2-.17-3.12.06-6.23.1-9.35.32h.1a98,98,0,0,1-11.23.24c-.8-.08-1.59-.18-2.38-.3a25.29,25.29,0,0,0-3.28-1c-.31-.13-.61-.26-.91-.41-.54-.3-1.06-.61-1.59-.94-2-1.43-3.83-3-5.89-4.34a35,35,0,0,0-4.49-2c-1-.55-2-1.2-3-1.69a7,7,0,0,0-4.31,0,8.68,8.68,0,0,0-4.21,2.84,4.84,4.84,0,0,0-.57-.63,6.15,6.15,0,0,0-3.5-1.67,9.52,9.52,0,0,0-2.13.07,78.47,78.47,0,0,0-8.11,1.71,57.52,57.52,0,0,0-5.81,1.19c-1.89.55-3.81,1-5.74,1.41s-3.65,1.13-5.45,1.73q-3.07,1-6.09,2.17c-1.63.54-3.28,1-4.93,1.45s-3.35.94-5,1.32c-2.07.33-4.12.67-6.17,1.12l-5.36,1.1a6.48,6.48,0,0,0-4.79-1.27,6.65,6.65,0,0,0-4.23,2.45,17.86,17.86,0,0,0-2.81,4.67c-.17-.92-.36-1.84-.59-2.76a74.26,74.26,0,0,0-3.21-10.39c-.69-1.65-1.52-3.22-2.33-4.8s-1.51-3-2.41-4.38a35.08,35.08,0,0,0-3.44-4.53c-.5-.57-1.06-1.06-1.61-1.58s-1.06-1-1.62-1.52a17.9,17.9,0,0,0-3.06-2.35,23.68,23.68,0,0,0-4.52-1.56c-.55-.2-1.11-.42-1.65-.67a13.93,13.93,0,0,0-3.19-.86l.49.1-.5-.11a14.15,14.15,0,0,0-1.94-.38c-.67-.06-1.34-.08-2-.08-1.11,0-2.22,0-3.33-.07-.92,0-1.84,0-2.75,0s-1.89,0-2.83,0c-1.28-.12-2.54-.45-3.83-.47-.68,0-1.36,0-2,0s-1.62,0-2.43,0l-.57-.09h0l-.28-.28c-.33-.42-.6-.9-.93-1.32-.57-.71-1.26-1.27-1.86-1.94l.32.37c-.63-.73-1.31-1.4-2-2.1a6,6,0,0,0-2.05-1.46,3.38,3.38,0,0,0-.13-.42,8.5,8.5,0,0,0-2.79-3.08c-.08-.1-.17-.19-.26-.29a10.6,10.6,0,0,0-1.5-1.57,4.91,4.91,0,0,0-2.26-1c-.31-.32-.61-.63-.93-.93l-1.13-1.1a12.42,12.42,0,0,0-2-1.51,11.19,11.19,0,0,0-2.53-1.35c-.28-.09-.58-.15-.87-.23a9.89,9.89,0,0,0-1.29-.9,18.55,18.55,0,0,0-2.34-1,8,8,0,0,0-2.7-.5c-.71,0-1.42.1-2.13.16-1.28,0-2.54,0-3.81.1-.75.09-1.49.22-2.23.35a20.2,20.2,0,0,0-2.18.49c-.54.17-1.07.36-1.6.55a11,11,0,0,0-1.93.65c-.91.45-1.78,1-2.64,1.46-1.2.69-2.35,1.44-3.47,2.24a19.16,19.16,0,0,0-2,1.5,18.4,18.4,0,0,0-1.58,1.72,83.88,83.88,0,0,0-6.13,8.52,37.88,37.88,0,0,0-4.43,9.55c-.42,1.38-.8,2.79-1.19,4.18s-.65,2.67-1,4c-.86,3.26-1.51,6.55-2.15,9.85-.42,2-.95,3.86-1.37,5.8a39.32,39.32,0,0,0-.63,6.12c-.15,2.16-.27,4.32-.28,6.49s0,4.53-.11,6.81-.07,4.56,0,6.84.32,4.29.51,6.42c.09,1.59.14,3.18.29,4.77.16,1.77.41,3.52.68,5.28s.43,3.24.64,4.87.52,3.26.87,4.88c.26,1.41.45,2.83.75,4.24s.68,2.72,1,4.09c.42,2.2.67,4.44,1.18,6.63s1.17,4.2,1.82,6.27,1.32,4.37,1.88,6.59c.53,2,1.14,4.08,1.66,6.14.46,2.42.78,4.86,1.23,7.29s1.1,4.67,1.61,7c.58,3,1.11,6,1.92,8.91a39.84,39.84,0,0,0,1.51,4.21c.56,1.38,1.08,2.78,1.6,4.17s1,2.78,1.63,4.11,1.36,2.8,2.12,4.17c1.43,2.59,2.87,5.17,4.23,7.8,1.92,4,3.45,8.1,5.06,12.19,1.39,3.55,3,7,4.52,10.47.77,1.7,1.5,3.43,2.29,5.14s1.52,3.18,2.27,4.78,1.57,3.41,2.42,5.09,1.7,3.28,2.58,4.91,1.8,3.28,2.79,4.87,2,3,3,4.43c1.15,1.72,2.26,3.48,3.41,5.2a57.33,57.33,0,0,1,3,5h0a3.52,3.52,0,0,0,1.23,2.54,2.52,2.52,0,0,0,1.26.58,3.29,3.29,0,0,0,1.92,2.44,3.13,3.13,0,0,0,1.22.25,3.32,3.32,0,0,0,3-2c.42-.92.71-1.88,1.13-2.79a34.72,34.72,0,0,1,2-3.1c1.35-2,2.6-3.94,3.81-6s2.31-3.79,3.5-5.66a124.75,124.75,0,0,0,6.48-12.4c1-1.89,2-3.76,3-5.67l-.17.34c.14-.27.28-.54.41-.81,1.28-2.54,2.51-5.1,3.78-7.64,1.87-3.67,3.77-7.33,5.36-11.13a111.65,111.65,0,0,0,3.77-10.87c.5-1.66.91-3.36,1.33-5s.89-3.44,1.29-5.18c.81-3.6,1.72-7.18,2.54-10.77s1.55-7.37,2.29-11.07c.73-3.22,1.46-6.43,2-9.67.52-2.84.92-5.69,1.48-8.52a1.16,1.16,0,0,1,0,.18l0-.22a1.16,1.16,0,0,1,0-.18s0,.11,0,.16c.3-1.42.59-2.83.88-4.25,0,.14,0,.27-.08.41.1-.5.19-1,.29-1.51.19,4.1.23,8.2.4,12.3.19,4.74.67,9.46,1,14.19.19,4.13.2,8.28.53,12.4s.67,8.25,1.32,12.33c.34,2.1.75,4.18,1.16,6.27s.68,3.93,1,5.88c.06.34.13.69.19,1a19.38,19.38,0,0,0,.18,2.4,2.92,2.92,0,0,0-.55,1.69,3,3,0,0,0,1.11,2.28l1.09,2.47q1.62,4.62,3.58,9.1a55,55,0,0,0,5.29,9c1.11,1.78,2,3.68,3.11,5.49s2.32,3.64,3.57,5.4c1,1.46,1.88,2.93,2.89,4.35a57.36,57.36,0,0,0,3.72,4.38c1.17,1.32,2.36,2.6,3.65,3.8s2.64,2.13,3.94,3.22c.26.25.52.52.77.78a38.9,38.9,0,0,0,2.84,3.17c1,1,2.17,1.88,3.26,2.81.64.58,1.27,1.17,1.93,1.71l1,.73c.36.35.7.72,1.07,1.07s1,.85,1.46,1.26c1.79,1.6,3.68,3.2,6.2,3.38l.74,0a6.52,6.52,0,0,0,1.79-.23,6.38,6.38,0,0,0,2.73-1.69,11.18,11.18,0,0,0,2.44-4.47c.72-2,1.16-4.09,1.77-6.12.5-1.62.91-3.26,1.28-4.91a2.29,2.29,0,0,0,.09-.28c.07-.33.13-.65.2-1s.11-.55.16-.82c.72-3.67,1.27-7.37,1.92-11,.42-2.38.67-4.79.89-7.21,1.18-3.68,2.32-7.36,3.51-11,.72-2.22,1.37-4.46,2-6.71s1-4.51,1.5-6.76c1-5.06,2-10.1,2.7-15.22,0-.15,0-.3,0-.45.71,4.09,1.75,8.11,2.68,12.16s1.39,8.38,1.95,12.58c.64,4.78,1.49,9.52,2.17,14.29a99.69,99.69,0,0,0,2.8,14,70.71,70.71,0,0,0,5.09,13.82,66.92,66.92,0,0,0,3.48,5.95c1.27,1.9,2.65,3.73,4,5.6,1.09,1.66,2.15,3.33,3.26,5a6.85,6.85,0,0,0,2.23,2.31,5.86,5.86,0,0,0,2.88.8,4.76,4.76,0,0,0,.84-.07,7.25,7.25,0,0,0,2.92-1.22,13.87,13.87,0,0,0,1.26-1.06c.5-.43,1-.86,1.46-1.34s.83-.94,1.24-1.42a8.48,8.48,0,0,0,1-.85l.81-.93c1.5-1.67,3.07-3.28,4.62-4.9a62.81,62.81,0,0,0,8.38-11.27c2.43-4,5.2-7.85,7.55-11.93a114.08,114.08,0,0,0,6.8-12.78,85.52,85.52,0,0,0,4.34-14c.53-2.39,1-4.8,1.44-7.2s.88-4.59,1.27-6.9c.77-4.53,1.4-9.09,1.91-13.65.25-2.18.4-4.37.55-6.56.16-2.39.5-4.74.79-7.11.57-4.67,1.09-9.36,1.42-14,.16-2.36.35-4.71.69-7,.37-2.48.84-4.94,1.14-7.42a70.27,70.27,0,0,0,.25-7.54c0-1,0-1.92,0-2.87.2,1.3.39,2.61.58,3.91l1.32,11c.47,3.94.86,7.9,1.44,11.82a6.1,6.1,0,0,0,1.39,3.06c0,.28,0,.57,0,.85a55.83,55.83,0,0,0,2,11,37,37,0,0,0,1.93,5.41c.75,1.63,1.44,3.29,2.22,4.91a39.31,39.31,0,0,0,2.93,5.42c.56.79,1.13,1.57,1.7,2.35s1,1.45,1.55,2.14q1.4,2,2.76,3.94c1.06,1.53,2.2,3,3.29,4.51.87,1.32,1.71,2.67,2.52,4s1.71,3,2.67,4.47,2,2.93,2.88,4.46,1.74,3,2.7,4.38c-.1-.13-.19-.28-.29-.42l1.24,1.83c1,1.63,1.86,3.38,2.84,5s1.91,3.24,2.77,4.92c1.39,2.76,2.87,5.48,4.34,8.21,1,1.78,2,3.53,2.92,5.34.17.36.32.74.46,1.12.32,1,.45,2.06.79,3s.81,2.11,1.18,3.18l-.06-.17a4.71,4.71,0,0,0,2.07,2.72,4,4,0,0,0,5.39-1.45,16.11,16.11,0,0,0,1.42-3.88c.36-1.14.72-2.27,1.1-3.39.87-2.36,1.75-4.71,2.57-7.08a90.24,90.24,0,0,1,3.84-8.79c.8-1.52,1.62-3,2.4-4.56s1.62-3.35,2.45-5c1.33-2.62,2.72-5.23,3.9-7.92,1.09-2.51,2-5.08,3.18-7.56,1.17-2.23,2.41-4.42,3.52-6.69s2.19-4.62,3.26-6.94,2.09-4.48,3.19-6.69a55.93,55.93,0,0,0,2.74-6.55l0,.08c.16-.48.33-.94.49-1.42,1-2.89,2.07-5.78,3.13-8.66s2.18-6,3.44-8.91a78.35,78.35,0,0,0,3.34-9.4,69,69,0,0,0,1.51-6.81c2-3.81,3.89-7.7,5.57-11.65,0,1.09,0,2.19.06,3.29-.16.63-.33,1.26-.49,1.9a54.22,54.22,0,0,0-1.33,8.59c-.2,2.28-.43,4.56-.82,6.81-.76,3.3-1.8,6.51-2.75,9.76a39,39,0,0,0-1.23,5.45c-.2,1.38-.35,2.76-.59,4.12a22.44,22.44,0,0,0-.67,3.09,10.83,10.83,0,0,0,0,2.9,5.86,5.86,0,0,0-.26,1.15,5.57,5.57,0,0,0,.26,3.22,4,4,0,0,0,2,3.73,2.69,2.69,0,0,0,.26.54,28.18,28.18,0,0,0,3.4,4c.86,1.09,1.7,2.19,2.55,3.29,1.5,2,3.06,3.87,4.55,5.83l.2.27c1.45,3.08,2.86,6.2,4.11,9.37s2.55,6.36,4.06,9.43c1.78,3.61,3.86,7,5.93,10.49,1.83,3,3.77,6,5.76,8.9-.21-.31-.42-.61-.62-.92,2.26,3.39,4.22,7.48,7.25,10.29a7.38,7.38,0,0,0,2.12,4.75,7.52,7.52,0,0,0,5.27,2.18,7.8,7.8,0,0,0,5.26-2.18c.48-.43.92-.89,1.38-1.32l2.26-2c.68-.58,1.4-1.09,2.09-1.64a42.44,42.44,0,0,0,3.68-3.41,63.45,63.45,0,0,0,5.35-6c1.38-1.84,2.68-3.72,4-5.63,1.12-1.64,2.26-3.27,3.38-4.92a41,41,0,0,0,3-5.39c.87-1.84,1.75-3.69,2.44-5.59.75-2.06,1.41-4.15,2.11-6.22,1.42-4,2.94-7.87,4.24-11.86q1.69-5.18,3.4-10.34c1.48-4,3-8,4.12-12.13.58-2.09,1.19-4.15,1.83-6.21a50,50,0,0,0,1.82-7.33c.34-2.33.44-4.69.71-7,.24-2,.54-4.06.79-6.09.57-4.56,1.09-9.09,1.39-13.67l-.09,1.31c.33-4.82.88-9.62,1.22-14.44.52-6.69,1.43-13.35,1.44-20.06,0-6.35-.25-12.7-.42-19S1308.8,1567.33,1308.66,1560.91ZM960.05,1704.74c.11.32.22.64.34,1h0c-.14-.28-.26-.57-.39-.85A.41.41,0,0,1,960.05,1704.74Z" transform="translate(-542.56 -1281.27)"/>
    <path class="cls-1" d="M1397.33,1476.42c-.13-4-.36-7.94-.58-11.91s-.13-7.84-.24-11.76a47.72,47.72,0,0,0-1.74-11.89,53.32,53.32,0,0,0-4.47-11.25c-.5-.9-1-1.79-1.55-2.66a15.21,15.21,0,0,0-2.45-3.19,18.22,18.22,0,0,0-5-3.3c-.68-.31-1.37-.61-2-.93a49.76,49.76,0,0,0-5.78-3,16.17,16.17,0,0,0-4.55-1.25,27.14,27.14,0,0,0-3.83-.14,25.32,25.32,0,0,0-4.49.73,20,20,0,0,0-3,.91c-1.17.47-2.31,1-3.44,1.57-.31-.66-.62-1.32-1-2l-1.19-2.11a28.25,28.25,0,0,0-2-3.11,18,18,0,0,0-3.65-3.54,29.26,29.26,0,0,0-8.61-4.09,17.56,17.56,0,0,0-8.39-1c-4.52.84-8.67,3.09-10.86,7.32a9.27,9.27,0,0,0-1.07,3.57,6.14,6.14,0,0,0-.32,1,12.16,12.16,0,0,0-1.22,1.61c-.34.54-.68,1.07-1,1.63a11.29,11.29,0,0,0-1.18,2.85c-.18.81-.28,1.65-.41,2.47-.53,3.24-1,6.47-1.4,9.73-.19,1.6-.42,3.18-.55,4.79-.06.64-.09,1.3-.12,2a12,12,0,0,0-1.17,7.3c.3,1.52.62,3,1,4.54,0,1,0,2-.06,3s-.09,2-.11,3,0,2,.12,3a37.56,37.56,0,0,0,.9,5.78c.45,1.85,1,3.71,1.54,5.53s1.16,3.82,1.74,5.73c1.08,3.58,2.27,7.13,3.53,10.65.29.92.55,1.83.79,2.76.33,1.81.6,3.61.91,5.42s.66,3.59,1,5.39.69,3.85.89,5.78.33,3.56.45,5.34c.14,2.36.24,4.71.29,7.07.06,2.58.22,5.14.36,7.72.07,1.37.15,2.75.27,4.13.11,1.21.33,2.42.54,3.63.41,2.43.79,4.84,1,7.3a.53.53,0,0,0,0-.13c.23,3.49.45,7,.73,10.47.19,3.18.25,6.37.4,9.56s.27,6.41.4,9.62c.31,7.67.44,15.36.12,23s-.55,15.39-1,23.08v-.05l-.3,4.52c-.26,3.67-.62,7.34-1,11-.18,1.89-.36,3.77-.6,5.66-.21,1.73-.59,3.44-.94,5.15l.09-.46c-.52,2.48-1.12,4.94-1.69,7.41-.45,1.91-1.21,3.84-1.08,5.82a3.53,3.53,0,0,0,2.14,2.8,3.65,3.65,0,0,0,1.38.27,3.53,3.53,0,0,0,1.79-.48,9.74,9.74,0,0,0,2.37-2.58c1.2-1.3,2.53-2.46,3.84-3.64a6.22,6.22,0,0,0,1.7-1.42c.13-.15.24-.32.36-.47l1.17-1.09c2-1.91,4.13-3.78,6.09-5.78q4.26-4.38,8.3-9c2.79-3.14,5.35-6.46,7.88-9.8q1.71-2.27,3.45-4.51c1.18-1.52,2.41-3,3.49-4.61.71-1,1.49-2.08,2.15-3.17l1.74-2.9c1-1.68,1.94-3.41,2.91-5.11s1.93-3.42,2.83-5.16c1.08-2.09,2.09-4.19,3.07-6.32.78-1.71,1.42-3.51,2.08-5.27s1.38-3.65,2.11-5.46a195.72,195.72,0,0,0,7.92-23c.54-2,1.07-4,1.5-6.1s.82-4.33,1.12-6.52c.25-1.81.44-3.63.74-5.43.36-2.14.76-4.27,1.16-6.4,1.48-7.82,2.22-15.75,2.93-23.67.34-3.92.85-7.85,1-11.78.1-4.14.08-8.27.06-12.4C1397.49,1484.27,1397.45,1480.35,1397.33,1476.42Z" transform="translate(-542.56 -1281.27)"/>
    <path class="cls-1" d="M1505.29,1438.89c-.15-2.46-.37-4.91-.6-7.36-.22-2.28-.38-4.56-.67-6.83-.56-4.44-2.29-8.68-3.8-12.86-.35-1.11-.66-2.21-.91-3.35q-.07-.45-.12-.9a38.54,38.54,0,0,1,.1-4v0c.15-1.67.37-3.32.52-5s.25-3.22.48-4.81c.45-3.13,1-6.22,1.45-9.35a64.16,64.16,0,0,0,.43-9.3c0-3.1-.18-6.19-.4-9.28a.91.91,0,0,0,0,.17c0-.08,0-.16,0-.24v0c-.18-3-.19-6-.3-9-.11-2.86-.35-5.71-.39-8.58-.08-5.73-.34-11.45-.75-17.16-.15-2.87-.23-5.74-.26-8.62a74.19,74.19,0,0,0-.35-9.07,58.93,58.93,0,0,0-1.86-9,51,51,0,0,0-3.37-8.25l.14.28c-.39-.85-.77-1.7-1.15-2.55-.46-1-1.1-2-1.64-3-.29-.6-.54-1.22-.8-1.83s-.65-1.39-1-2.09c-.13-.41-.26-.82-.4-1.23,0-.11,0-.21,0-.32a5,5,0,0,0-1.78-3.18,4.5,4.5,0,0,0-5.46,0,4.6,4.6,0,0,0-1.75,3.6,4.26,4.26,0,0,0,0,.63v0c-.12.52-.26,1-.37,1.55l0-.21c0,.23-.1.44-.17.66a17.06,17.06,0,0,0-.6,2.15c0-.2.08-.41.13-.61-.09.41-.2.81-.31,1.22a3.64,3.64,0,0,0-1.41,1.45,9.78,9.78,0,0,0-.78,3.06c-.1.6-.22,1.19-.34,1.79-.52,2.47-1.18,4.9-1.73,7.36-.18.78-.35,1.56-.52,2.35l-.37.71c-1.26,2.48-2.64,4.9-3.83,7.42-1,2.19-2,4.39-3.08,6.56-.93,1.82-1.87,3.64-2.75,5.47s-1.6,3.59-2.36,5.4-1.49,3.55-2.22,5.34-1.37,3.7-2.12,5.53-1.5,3.62-2.33,5.39-1.75,3.58-2.61,5.38c-1.64,3.47-3.15,7-4.83,10.46q-2.59,4.93-5.45,9.73c-1.2,2-2.28,4.09-3.39,6.15s-2.3,4.13-3.4,6.21c-2.45,4.6-4.72,9.28-6.92,14-2,4.31-4.25,8.51-6.2,12.86a82.31,82.31,0,0,0-4.84,13.93c-.58,2.34-1.06,4.7-1.54,7.06-.53,2.57-1.07,5.14-1.44,7.74a74.84,74.84,0,0,0-.83,14.42c.13,2.51.28,5,.52,7.51a31.44,31.44,0,0,0,.49,3.35,39.56,39.56,0,0,0,1,4.41,19.27,19.27,0,0,0,2.92,5.66,19.83,19.83,0,0,0,4,4.27l2.71,2a26.43,26.43,0,0,0,3.84,2.34,22.6,22.6,0,0,0,2.78,1.4c.56.21,1.12.41,1.66.66a26.81,26.81,0,0,0,4.11,1.89,18.25,18.25,0,0,0,1.81.41c.51.12,1,.27,1.52.34a8.68,8.68,0,0,0,1.61.07c.62,0,1.25,0,1.86-.09a6.79,6.79,0,0,0,2.36-.79l-.34.16c.38-.18.79-.34,1.19-.5a55.92,55.92,0,0,0,1.62,5.83,19.91,19.91,0,0,0,2.72,4.9c1.14,1.59,2.29,3.17,3.55,4.68a40.47,40.47,0,0,0,4,4.31,27.31,27.31,0,0,0,5.06,3.53,18.57,18.57,0,0,0,7.79,2c.61,0,1.23.07,1.86.07a7.35,7.35,0,0,0,3-.53,28.82,28.82,0,0,0,3-1.59,22.07,22.07,0,0,0,5.2-4.68,45.46,45.46,0,0,0,4-5.64c1.26-2,2.44-4,3.5-6.06a123.59,123.59,0,0,0,6.12-13,86.24,86.24,0,0,0,3.42-13.44c.08-.38.16-.76.23-1.14.12-.58.24-1.15.38-1.72a60,60,0,0,0,1.42-6.88c.28-2.4.36-4.83.47-7.26s.24-4.81.18-7.22S1505.45,1441.32,1505.29,1438.89Z" transform="translate(-542.56 -1281.27)"/>
  </g>
</svg>
